<svg width="45" height="45" viewBox="0 0 45 45" fill="none" xmlns="http://www.w3.org/2000/svg">
<path fill-rule="evenodd" clip-rule="evenodd" d="M40.844 17.01C40.2413 16.4072 39.4239 16.0684 38.5715 16.0682H32.1429C31.2904 16.0682 30.4729 15.7296 29.8701 15.1268C29.2673 14.524 28.9286 13.7064 28.9286 12.8539V6.42537C28.9286 4.7204 28.2513 3.08527 27.0457 1.87968C25.8401 0.67409 24.205 -0.00320435 22.5001 -0.00320435C20.7951 -0.00320435 19.16 0.67409 17.9544 1.87968C16.7488 3.08527 16.0715 4.7204 16.0715 6.42537V12.8539C16.0715 13.7064 15.7328 14.524 15.13 15.1268C14.5272 15.7296 13.7097 16.0682 12.8572 16.0682H6.42863C5.57614 16.0682 4.75858 16.4069 4.15578 17.0097C3.55299 17.6125 3.21434 18.43 3.21434 19.2825V25.7111C3.21434 26.1373 3.38366 26.5461 3.68506 26.8475C3.98646 27.1489 4.39524 27.3182 4.82148 27.3182H40.1786C40.6043 27.3182 41.0126 27.1493 41.3139 26.8486C41.6152 26.5479 41.7849 26.14 41.7858 25.7143V19.2857C41.7856 18.4333 41.4468 17.6159 40.844 17.0132V17.01ZM3.24648 41.5736L4.82148 30.5357H40.1786L41.7536 41.5736C41.8143 41.9989 41.7831 42.4324 41.6619 42.8446C41.5407 43.2568 41.3325 43.6382 41.0512 43.963C40.77 44.2878 40.4223 44.5485 40.0316 44.7274C39.641 44.9063 39.2165 44.9993 38.7868 45H29.7322V38.5714C29.7322 37.9321 29.4782 37.3189 29.0261 36.8668C28.574 36.4147 27.9608 36.1607 27.3215 36.1607C26.6821 36.1607 26.0689 36.4147 25.6168 36.8668C25.1648 37.3189 24.9108 37.9321 24.9108 38.5714V45H6.21648C5.78628 45.0002 5.36107 44.9079 4.96965 44.7294C4.57822 44.5509 4.22973 44.2904 3.94778 43.9654C3.66584 43.6405 3.45701 43.2588 3.33546 42.8461C3.21391 42.4334 3.18247 41.9995 3.24327 41.5736H3.24648Z" fill="#595959"/>
</svg>
